<mxfile host="app.diagrams.net" modified="2024-06-29T08:11:33.808Z" agent="Mozilla/5.0 (Windows NT 10.0; Win64; x64) AppleWebKit/537.36 (KHTML, like Gecko) Chrome/126.0.0.0 Safari/537.36" version="24.6.4" etag="9hGfwLJzr5EPwar1YetF" type="github">
  <diagram name="페이지-1" id="HVwgaBPTn1TONlx-7drl">
    <mxGraphModel>
      <root>
        <mxCell id="0" />
        <mxCell id="1" parent="0" />
      </root>
    </mxGraphModel>
  </diagram>
</mxfile>
